<svg height="512" viewBox="0 0 512 512" width="512" xmlns="http://www.w3.org/2000/svg"><g id="Flat"><path d="m128 440h337.3a22.7 22.7 0 0 0 22.7-22.7v-329.3a16 16 0 0 0 -16-16h-99.618a24 24 0 0 0 -16.03 6.138l-28.82 25.862h-183.532a16 16 0 0 0 -16 16z" fill="#f99e0c"/><path d="m96 400h360v-248h-360.254z" fill="#4db6e4"/><g fill="#3ba5d3"><path d="m168 184h16v184h-16z"/><path d="m128 184h16v184h-16z"/><path d="m248 184h16v184h-16z"/><path d="m208 184h16v184h-16z"/><path d="m328 184h16v184h-16z"/><path d="m288 184h16v184h-16z"/><path d="m408 184h16v184h-16z"/><path d="m368 184h16v184h-16z"/></g><path d="m98.105 424.562a24 24 0 0 0 22.421 15.438h343.474a22.7 22.7 0 0 1 -21.381-15.068l-68.93-193a24 24 0 0 0 -22.602-15.932h-313.287a13.319 13.319 0 0 0 -13.31 13.791 13.3 13.3 0 0 0 .867 4.272z" fill="#ffb431"/><path d="m440 104h16v16h-16z" fill="#e7880c"/><path d="m408 104h16v16h-16z" fill="#e7880c"/><path d="m376 104h16v16h-16z" fill="#e7880c"/><path d="m86.4 276.611h16v94.779h-16z" fill="#ffc261" transform="matrix(.928 -.371 .371 .928 -113.579 58.233)"/><path d="m59.2 247.384h16v17.233h-16z" fill="#ffc261" transform="matrix(.928 -.371 .371 .928 -90.274 43.271)"/><path d="m32 184h-16v-8a80.091 80.091 0 0 1 80-80v16a64.072 64.072 0 0 0 -64 64z" fill="#f1ddc1"/></g></svg>